<svg width="1845" height="970" viewBox="0 0 1845 970" fill="none" xmlns="http://www.w3.org/2000/svg">
<path fill-rule="evenodd" clip-rule="evenodd" d="M918.041 569.951C811.794 568.203 708.455 517.095 659.472 446.492C617.716 386.306 727.257 393.252 732.005 325.525C736.24 265.13 639.279 128.385 685.262 78.6601C734.136 25.8088 832.348 5.4826 918.041 1.42052C1011.28 -2.99918 1124.97 -0.127663 1182.29 55.0995C1238.6 109.347 1122.81 256.831 1123.83 325.525C1124.88 395.873 1235.56 394.416 1188.24 455.196C1134.02 524.817 1025.66 571.723 918.041 569.951Z" fill="#F1F8BC"/>
<path d="M1072.93 428.903C1072.93 499.885 1006.13 557.427 923.727 557.427C841.326 557.427 774.527 499.885 774.527 428.903C774.527 357.921 841.326 300.379 923.727 300.379C1006.13 300.379 1072.93 357.921 1072.93 428.903Z" fill="#07050A"/>
<path d="M847.74 428.903C847.74 414.244 859.602 402.36 874.234 402.36C888.866 402.36 900.727 414.244 900.727 428.903V481.989C900.727 496.648 888.866 508.532 874.234 508.532C859.602 508.532 847.74 496.648 847.74 481.989V428.903Z" fill="#FABC3C"/>
<path d="M948.137 465.225C948.137 450.566 959.999 438.682 974.63 438.682C989.262 438.682 1001.12 450.566 1001.12 465.225V481.989C1001.12 496.648 989.262 508.532 974.63 508.532C959.999 508.532 948.137 496.648 948.137 481.989V465.225Z" fill="#FABC3C"/>
<path d="M948.137 416.33C948.137 408.614 954.38 402.36 962.081 402.36H987.18C994.881 402.36 1001.12 408.614 1001.12 416.33C1001.12 424.045 994.881 430.3 987.18 430.3H962.081C954.38 430.3 948.137 424.045 948.137 416.33Z" fill="#FABC3C"/>
<path d="M35.7207 966.625V666.672H0V595.375H131.603V666.672H95.8819V966.625H35.7207Z" fill="#F1F8BC"/>
<path d="M148.352 966.625V595.375H268.674V667.094H209.539V739.445H266.282V809.266H209.539V894.273H272.605V966.625H148.352Z" fill="#F1F8BC"/>
<path d="M292.602 966.625V595.375H354.472L382.16 773.195V595.375H440.27V966.625H381.477L351.396 781V966.625H292.602Z" fill="#F1F8BC"/>
<path d="M492.741 966.625V666.672H457.02V595.375H588.622V666.672H552.902V966.625H492.741Z" fill="#F1F8BC"/>
<path d="M605.372 966.625V595.375H725.694V667.094H666.559V739.445H723.302V809.266H666.559V894.273H729.625V966.625H605.372Z" fill="#F1F8BC"/>
<path d="M823.456 966.625L852.511 595.375H954.546L983.088 966.625H926.175L921.902 906.719H885.668L881.908 966.625H823.456ZM889.941 847.445H917.287L904.127 658.656H901.392L889.941 847.445Z" fill="#F1F8BC"/>
<path d="M1155.03 970C1127.57 970 1107.74 961.562 1095.55 944.688C1083.47 927.812 1077.43 900.953 1077.43 864.109V827.828H1136.91V874.234C1136.91 882.812 1137.94 889.562 1139.99 894.484C1142.15 899.266 1145.85 901.656 1151.1 901.656C1156.56 901.656 1160.32 899.688 1162.38 895.75C1164.54 891.812 1165.62 885.344 1165.62 876.344C1165.62 864.953 1164.71 855.461 1162.89 847.867C1161.07 840.133 1157.87 832.82 1153.32 825.93C1148.87 818.898 1142.66 810.742 1134.69 801.461L1107.68 769.82C1087.52 746.336 1077.43 719.477 1077.43 689.242C1077.43 657.602 1083.36 633.484 1095.21 616.891C1107.17 600.297 1124.43 592 1146.99 592C1174.57 592 1194.11 601.07 1205.62 619.211C1217.24 637.352 1223.05 664.914 1223.05 701.898H1161.86V676.375C1161.86 671.312 1160.67 667.375 1158.27 664.562C1155.99 661.75 1152.86 660.344 1148.87 660.344C1144.09 660.344 1140.56 662.031 1138.28 665.406C1136.11 668.641 1135.03 672.859 1135.03 678.062C1135.03 683.266 1136.17 688.891 1138.45 694.938C1140.73 700.984 1145.23 707.945 1151.95 715.82L1186.65 756.953C1193.6 765.109 1199.98 773.758 1205.79 782.898C1211.6 791.898 1216.27 802.445 1219.8 814.539C1223.33 826.492 1225.1 841.117 1225.1 858.414C1225.1 893.289 1219.86 920.641 1209.38 940.469C1199.01 960.156 1180.89 970 1155.03 970Z" fill="#F1F8BC"/>
<path d="M1317.05 970C1293.01 970 1274.61 961.07 1261.85 943.211C1249.2 925.211 1242.88 899.266 1242.88 865.375V689.031C1242.88 657.25 1249.14 633.133 1261.68 616.68C1274.32 600.227 1292.78 592 1317.05 592C1341.32 592 1359.72 600.227 1372.26 616.68C1384.9 633.133 1391.23 657.25 1391.23 689.031V865.375C1391.23 899.266 1384.85 925.211 1372.09 943.211C1359.44 961.07 1341.09 970 1317.05 970ZM1317.56 901.656C1326.68 901.656 1331.24 890.758 1331.24 868.961V687.766C1331.24 669.484 1326.79 660.344 1317.91 660.344C1307.88 660.344 1302.87 669.695 1302.87 688.398V869.383C1302.87 880.914 1304.01 889.211 1306.28 894.273C1308.56 899.195 1312.32 901.656 1317.56 901.656Z" fill="#F1F8BC"/>
<path d="M1415.5 966.625V595.375H1507.79C1523.17 595.375 1534.79 599.734 1542.66 608.453C1550.52 617.031 1555.76 629.125 1558.38 644.734C1561.11 660.203 1562.48 678.414 1562.48 699.367C1562.48 719.617 1560.37 735.789 1556.16 747.883C1552.06 759.977 1544.25 768.344 1532.74 772.984C1542.2 775.375 1548.81 781.211 1552.57 790.492C1556.44 799.633 1558.38 811.516 1558.38 826.141V966.625H1499.07V821.289C1499.07 810.461 1497.25 803.781 1493.6 801.25C1490.07 798.578 1484.32 797.242 1476.34 797.242V966.625H1415.5ZM1476.68 732.906H1491.21C1499.53 732.906 1503.69 721.727 1503.69 699.367C1503.69 684.883 1502.78 675.391 1500.95 670.891C1499.13 666.391 1495.71 664.141 1490.7 664.141H1476.68V732.906Z" fill="#F1F8BC"/>
<path d="M1608.12 966.625V666.672H1572.39V595.375H1704V666.672H1668.28V966.625H1608.12Z" fill="#F1F8BC"/>
<path d="M1720.75 966.625V595.375H1841.07V667.094H1781.93V739.445H1838.68V809.266H1781.93V894.273H1845V966.625H1720.75Z" fill="#F1F8BC"/>
</svg>
