<svg width="125" height="130" viewBox="0 0 125 130" fill="none" xmlns="http://www.w3.org/2000/svg">
<path fill-rule="evenodd" clip-rule="evenodd" d="M60.9184 129.989C36.7713 129.59 13.2852 117.934 2.1528 101.832C-7.33719 88.1048 17.5584 89.689 18.6376 74.2425C19.5999 60.4683 -2.43651 29.2808 8.01407 17.94C19.1217 5.88621 41.4426 1.25042 60.9184 0.323977C82.1087 -0.684024 107.948 -0.0291162 120.975 12.5666C133.772 24.9388 107.457 58.5754 107.689 74.2425C107.926 90.2869 133.083 89.9546 122.326 103.817C110.005 119.695 85.3776 130.393 60.9184 129.989Z" fill="#F1F8BC"/>
<path d="M96.12 97.82C96.12 114.009 80.9383 127.132 62.2108 127.132C43.4832 127.132 28.3015 114.009 28.3015 97.82C28.3015 81.6311 43.4832 68.5074 62.2108 68.5074C80.9383 68.5074 96.12 81.6311 96.12 97.82Z" fill="#121010"/>
<path d="M44.941 97.82C44.941 94.4766 47.6368 91.7663 50.9622 91.7663C54.2877 91.7663 56.9835 94.4766 56.9835 97.82V109.927C56.9835 113.271 54.2877 115.981 50.9622 115.981C47.6368 115.981 44.941 113.271 44.941 109.927V97.82Z" fill="#FABC3C"/>
<path d="M67.7584 106.104C67.7584 102.761 70.4542 100.05 73.7797 100.05C77.1051 100.05 79.8009 102.761 79.8009 106.104V109.927C79.8009 113.271 77.1051 115.981 73.7797 115.981C70.4542 115.981 67.7584 113.271 67.7584 109.927V106.104Z" fill="#FABC3C"/>
<path d="M67.7584 94.9524C67.7584 93.1928 69.1772 91.7663 70.9275 91.7663H76.6318C78.3821 91.7663 79.8009 93.1928 79.8009 94.9524C79.8009 96.7121 78.3821 98.1386 76.6318 98.1386H70.9275C69.1772 98.1386 67.7584 96.7121 67.7584 94.9524Z" fill="#FABC3C"/>
</svg>
