<svg width="200" height="200" viewBox="0 0 200 200" fill="none" xmlns="http://www.w3.org/2000/svg">
<path d="M100 0L120.706 22.7259L150 13.3975L156.569 43.4315L186.603 50L177.274 79.2945L200 100L177.274 120.706L186.603 150L156.569 156.569L150 186.603L120.706 177.274L100 200L79.2945 177.274L50 186.603L43.4315 156.569L13.3975 150L22.7259 120.706L0 100L22.7259 79.2945L13.3975 50L43.4315 43.4315L50 13.3975L79.2945 22.7259L100 0Z" fill="#FABC3C"/>
<path d="M99.9697 14.9697L118.087 34.8549L143.72 26.6925L149.467 52.9723L175.747 58.7197L167.585 84.3524L187.47 102.47L167.585 120.587L175.747 146.22L149.467 151.967L143.72 178.247L118.087 170.085L99.9697 189.97L81.8524 170.085L56.2197 178.247L50.4723 151.967L24.1925 146.22L32.3549 120.587L12.4697 102.47L32.3549 84.3524L24.1925 58.7197L50.4723 52.9723L56.2197 26.6925L81.8524 34.8549L99.9697 14.9697Z" fill="#FABC3C"/>
<path d="M99.7451 32.2439L114.239 48.1521L134.745 41.6221L139.343 62.6459L160.367 67.2439L153.837 87.75L169.745 102.244L153.837 116.738L160.367 137.244L139.343 141.842L134.745 162.866L114.239 156.336L99.7451 172.244L85.2513 156.336L64.7451 162.866L60.1471 141.842L39.1233 137.244L45.6533 116.738L29.7451 102.244L45.6533 87.75L39.1233 67.2439L60.1471 62.6459L64.7451 41.6221L85.2513 48.1521L99.7451 32.2439Z" fill="#FABC3C"/>
</svg>
